<?xml version="1.0" encoding="utf-8"?>
<!-- Generator: Adobe Illustrator 20.1.0, SVG Export Plug-In . SVG Version: 6.00 Build 0)  -->
<svg version="1.1" id="Layer_1" xmlns="http://www.w3.org/2000/svg" xmlns:xlink="http://www.w3.org/1999/xlink" x="0px" y="0px"
	 viewBox="0 0 2000 340.2" style="enable-background:new 0 0 2000 340.2;" xml:space="preserve">
<style type="text/css">
	.st0{display:none;}
	.st1{display:inline;fill:#593C81;}
	.st2{fill:#4F87A0;}
</style>
<g class="st0">
	<circle class="st1" cx="536.2" cy="108.7" r="8.2"/>
	<circle class="st1" cx="566.7" cy="100.9" r="8.2"/>
	<circle class="st1" cx="608.3" cy="96.6" r="8.2"/>
	<circle class="st1" cx="647" cy="129.3" r="8.2"/>
	<circle class="st1" cx="658" cy="153.3" r="8.2"/>
	<circle class="st1" cx="661.5" cy="188" r="8.2"/>
	<circle class="st1" cx="636.4" cy="224.5" r="8.2"/>
	<circle class="st1" cx="584.7" cy="243.6" r="8.2"/>
	<circle class="st1" cx="533" cy="229.8" r="8.2"/>
	<circle class="st1" cx="510.3" cy="177.4" r="8.2"/>
	<circle class="st1" cx="512.9" cy="145" r="8.2"/>
	<circle class="st1" cx="627.1" cy="195.1" r="5.9"/>
	<circle class="st1" cx="600.4" cy="215.4" r="5.9"/>
	<circle class="st1" cx="621.2" cy="210.4" r="5.9"/>
	<circle class="st1" cx="554.4" cy="209.1" r="5.9"/>
	<circle class="st1" cx="545.8" cy="193.9" r="5.9"/>
	<circle class="st1" cx="537.6" cy="179.6" r="5.9"/>
	<circle class="st1" cx="556.3" cy="139.2" r="5.9"/>
	<circle class="st1" cx="572.5" cy="126.9" r="5.9"/>
	<circle class="st1" cx="610.3" cy="132.7" r="5.9"/>
	<circle class="st1" cx="595" cy="198.1" r="4.1"/>
	<circle class="st1" cx="605.3" cy="194" r="4.1"/>
	<circle class="st1" cx="637.7" cy="157.4" r="4.1"/>
	<circle class="st1" cx="626.2" cy="143.3" r="4.1"/>
	<circle class="st1" cx="587.8" cy="121" r="4.1"/>
	<circle class="st1" cx="546.9" cy="125.4" r="4.1"/>
	<circle class="st1" cx="549.9" cy="177.8" r="4.1"/>
	<circle class="st1" cx="622" cy="162.1" r="4.1"/>
	<circle class="st1" cx="512.9" cy="145" r="8.2"/>
	<circle class="st1" cx="584.7" cy="169.7" r="12.2"/>
	<circle class="st1" cx="537.6" cy="159.5" r="5.9"/>
	<circle class="st1" cx="574" cy="209.5" r="4.1"/>
</g>
<g class="st0">
	<path class="st1" d="M744.3,133.6v46.7c0,5.5,1,10.1,3.1,13.7c3.1,5.5,8.3,8.2,15.6,8.2c8.8,0,14.7-3,17.9-8.9
		c1.7-3.2,2.5-7.6,2.5-13v-46.7h10.3v42.5c0,9.3-1.3,16.5-3.8,21.5c-4.6,9.1-13.3,13.7-26.1,13.7c-12.8,0-21.5-4.6-26.1-13.7
		c-2.5-5-3.8-12.2-3.8-21.5v-42.5H744.3z"/>
	<path class="st1" d="M815.7,209.2h-12.3l26.8-38.8l-25.1-36.8h12.8l19.1,28.9l18.9-28.9H868L843,170.4l26.3,38.8h-12.7l-20.2-31.1
		L815.7,209.2z"/>
	<path class="st1" d="M962.5,139.1c5.2,5,8.1,10.8,8.7,17.2h-10c-1.1-4.9-3.3-8.7-6.6-11.6c-3.3-2.8-8-4.3-14-4.3
		c-7.3,0-13.2,2.6-17.7,7.9c-4.5,5.2-6.7,13.3-6.7,24.1c0,8.9,2,16.1,6.1,21.6c4.1,5.5,10.1,8.3,18.2,8.3c7.4,0,13.1-2.9,16.9-8.7
		c2.1-3.1,3.6-7.1,4.6-12h10c-0.9,8-3.8,14.6-8.8,20c-5.9,6.5-13.9,9.7-24,9.7c-8.7,0-16-2.7-21.9-8c-7.8-7-11.7-17.9-11.7-32.6
		c0-11.2,2.9-20.3,8.8-27.5c6.3-7.8,15-11.6,26.1-11.6C949.9,131.5,957.3,134.1,962.5,139.1z"/>
	<path class="st1" d="M1023.8,159.6c4.9,4.7,7.3,11.7,7.3,20.9c0,8.9-2.1,16.2-6.4,22c-4.3,5.8-11,8.7-20,8.7
		c-7.5,0-13.5-2.6-17.9-7.7c-4.4-5.1-6.6-12-6.6-20.7c0-9.3,2.3-16.6,7-22.1c4.7-5.5,10.9-8.2,18.8-8.2
		C1013,152.5,1019,154.8,1023.8,159.6z M1018.1,196.2c2.3-4.6,3.4-9.8,3.4-15.5c0-5.1-0.8-9.3-2.4-12.5c-2.6-5.1-7-7.6-13.3-7.6
		c-5.6,0-9.7,2.2-12.2,6.5c-2.5,4.3-3.8,9.5-3.8,15.6c0,5.9,1.3,10.7,3.8,14.7c2.5,3.9,6.6,5.9,12.1,5.9
		C1011.7,203.2,1015.8,200.9,1018.1,196.2z"/>
	<path class="st1" d="M1041.8,154.3h9.1v7.3c1.9-2.5,3.9-4.4,6.1-5.8c3.1-2.1,6.8-3.1,11-3.1c6.3,0,11.6,2.4,16,7.2
		c4.4,4.8,6.6,11.6,6.6,20.5c0,12-3.2,20.6-9.5,25.7c-4,3.3-8.6,4.9-14,4.9c-4.2,0-7.7-0.9-10.5-2.7c-1.7-1-3.5-2.8-5.5-5.3v28.2
		h-9.3V154.3z M1076.6,197.6c2.9-3.6,4.3-9,4.3-16.2c0-4.4-0.6-8.2-1.9-11.3c-2.4-6.1-6.8-9.1-13.2-9.1c-6.4,0-10.8,3.2-13.2,9.6
		c-1.3,3.4-1.9,7.8-1.9,13.1c0,4.3,0.6,7.9,1.9,10.9c2.4,5.7,6.8,8.5,13.2,8.5C1070.1,203,1073.8,201.2,1076.6,197.6z"/>
	<path class="st1" d="M1135.2,155.6c3.7,1.8,6.4,4.2,8.3,7.1c1.8,2.8,3.1,6,3.7,9.7c0.5,2.5,0.8,6.6,0.8,12.2H1108
		c0.2,5.6,1.5,10.1,3.9,13.5c2.5,3.4,6.2,5.1,11.4,5.1c4.8,0,8.6-1.6,11.5-4.8c1.6-1.9,2.7-4,3.4-6.5h9.1c-0.2,2-1,4.3-2.4,6.8
		c-1.4,2.5-2.9,4.5-4.5,6.1c-2.8,2.7-6.3,4.6-10.4,5.6c-2.2,0.5-4.7,0.8-7.5,0.8c-6.8,0-12.6-2.5-17.3-7.5c-4.7-5-7.1-12-7.1-21
		c0-8.9,2.4-16,7.2-21.6c4.8-5.5,11-8.3,18.7-8.3C1127.8,152.8,1131.6,153.8,1135.2,155.6z M1138.6,177.2c-0.4-4-1.2-7.2-2.6-9.6
		c-2.5-4.5-6.7-6.7-12.6-6.7c-4.2,0-7.8,1.5-10.6,4.6c-2.9,3.1-4.4,7-4.5,11.7H1138.6z"/>
	<path class="st1" d="M1159.8,154.1h8.8v7.8c2.6-3.2,5.4-5.5,8.3-7c2.9-1.4,6.2-2.1,9.7-2.1c7.8,0,13.1,2.7,15.9,8.2
		c1.5,3,2.3,7.3,2.3,12.8v35.4h-9.4v-34.8c0-3.4-0.5-6.1-1.5-8.1c-1.6-3.4-4.6-5.1-9-5.1c-2.2,0-4,0.2-5.4,0.7
		c-2.5,0.8-4.8,2.3-6.7,4.5c-1.5,1.8-2.5,3.7-3,5.6c-0.5,1.9-0.7,4.7-0.7,8.3v28.9h-9.3V154.1z"/>
	<path class="st1" d="M1218.5,133.3h9.3v28.2c2.2-2.8,4.2-4.7,5.9-5.9c3-2,6.7-2.9,11.2-2.9c8,0,13.4,2.8,16.3,8.4
		c1.5,3.1,2.3,7.3,2.3,12.7v35.4h-9.5v-34.8c0-4-0.5-7-1.5-8.9c-1.7-3-4.8-4.5-9.5-4.5c-3.8,0-7.3,1.3-10.5,4
		c-3.1,2.6-4.7,7.6-4.7,15v29.2h-9.3V133.3z"/>
	<path class="st1" d="M1306.7,175.8c2.1-0.3,3.6-1.2,4.3-2.7c0.4-0.8,0.6-2,0.6-3.6c0-3.2-1.1-5.5-3.4-6.9c-2.2-1.4-5.5-2.1-9.6-2.1
		c-4.8,0-8.3,1.3-10.3,3.9c-1.1,1.4-1.9,3.6-2.2,6.5h-8.6c0.2-6.8,2.4-11.6,6.6-14.2c4.2-2.7,9.1-4,14.7-4c6.5,0,11.7,1.2,15.8,3.7
		c4,2.5,6,6.3,6,11.5v31.8c0,1,0.2,1.7,0.6,2.3c0.4,0.6,1.2,0.9,2.5,0.9c0.4,0,0.9,0,1.4-0.1c0.5-0.1,1.1-0.1,1.6-0.2v6.8
		c-1.4,0.4-2.5,0.7-3.3,0.8c-0.8,0.1-1.8,0.2-3.1,0.2c-3.2,0-5.5-1.1-7-3.4c-0.8-1.2-1.3-2.9-1.6-5.1c-1.9,2.5-4.6,4.6-8.1,6.4
		c-3.5,1.8-7.4,2.7-11.7,2.7c-5.1,0-9.3-1.6-12.5-4.7s-4.9-7-4.9-11.6c0-5.1,1.6-9.1,4.8-11.9c3.2-2.8,7.4-4.5,12.6-5.2
		L1306.7,175.8z M1287.1,200.9c2,1.5,4.3,2.3,7,2.3c3.3,0,6.4-0.8,9.5-2.3c5.1-2.5,7.7-6.6,7.7-12.3v-7.5c-1.1,0.7-2.6,1.3-4.4,1.8
		c-1.8,0.5-3.5,0.8-5.2,1l-5.6,0.7c-3.4,0.4-5.9,1.1-7.6,2.1c-2.9,1.6-4.3,4.2-4.3,7.7C1284.2,197.2,1285.2,199.3,1287.1,200.9z"/>
	<path class="st1" d="M1366.4,156.3c1.7,1.2,3.5,3,5.3,5.3v-7h8.5v50.1c0,7-1,12.5-3.1,16.6c-3.8,7.5-11.1,11.2-21.7,11.2
		c-5.9,0-10.9-1.3-14.9-4c-4-2.7-6.3-6.8-6.8-12.5h9.4c0.4,2.5,1.3,4.4,2.7,5.7c2.1,2.1,5.4,3.1,9.8,3.1c7.1,0,11.7-2.5,13.9-7.5
		c1.3-3,1.9-8.2,1.8-15.8c-1.8,2.8-4.1,4.9-6.7,6.3c-2.6,1.4-6,2.1-10.3,2.1c-5.9,0-11.2-2.1-15.6-6.4c-4.5-4.2-6.7-11.2-6.7-21
		c0-9.2,2.2-16.4,6.7-21.6c4.5-5.2,9.9-7.8,16.3-7.8C1359.4,153.1,1363.2,154.2,1366.4,156.3z M1367.5,166.2
		c-2.8-3.3-6.4-4.9-10.7-4.9c-6.5,0-10.9,3.1-13.3,9.2c-1.3,3.3-1.9,7.5-1.9,12.8c0,6.2,1.3,10.9,3.8,14.2s5.9,4.9,10.1,4.9
		c6.6,0,11.3-3,14-9c1.5-3.4,2.3-7.4,2.3-11.9C1371.7,174.6,1370.3,169.5,1367.5,166.2z"/>
	<path class="st1" d="M1428.4,155.6c3.7,1.8,6.4,4.2,8.3,7.1c1.8,2.8,3.1,6,3.7,9.7c0.5,2.5,0.8,6.6,0.8,12.2h-40.1
		c0.2,5.6,1.5,10.1,3.9,13.5c2.5,3.4,6.2,5.1,11.4,5.1c4.8,0,8.6-1.6,11.5-4.8c1.6-1.9,2.7-4,3.4-6.5h9.1c-0.2,2-1,4.3-2.4,6.8
		c-1.4,2.5-2.9,4.5-4.5,6.1c-2.8,2.7-6.3,4.6-10.4,5.6c-2.2,0.5-4.7,0.8-7.5,0.8c-6.8,0-12.6-2.5-17.3-7.5c-4.7-5-7.1-12-7.1-21
		c0-8.9,2.4-16,7.2-21.6c4.8-5.5,11-8.3,18.7-8.3C1421,152.8,1424.8,153.8,1428.4,155.6z M1431.8,177.2c-0.4-4-1.2-7.2-2.6-9.6
		c-2.5-4.5-6.7-6.7-12.6-6.7c-4.2,0-7.8,1.5-10.6,4.6c-2.9,3.1-4.4,7-4.5,11.7H1431.8z"/>
	<path class="st1" d="M1453,154.1h8.8v7.8c2.6-3.2,5.4-5.5,8.3-7c2.9-1.4,6.2-2.1,9.7-2.1c7.8,0,13.1,2.7,15.9,8.2
		c1.5,3,2.3,7.3,2.3,12.8v35.4h-9.4v-34.8c0-3.4-0.5-6.1-1.5-8.1c-1.6-3.4-4.6-5.1-9-5.1c-2.2,0-4,0.2-5.4,0.7
		c-2.5,0.8-4.8,2.3-6.7,4.5c-1.5,1.8-2.5,3.7-3,5.6c-0.5,1.9-0.7,4.7-0.7,8.3v28.9h-9.3V154.1z"/>
</g>
<g>
	<circle class="st2" cx="67.6" cy="97.2" r="16.3"/>
	<circle class="st2" cx="81.1" cy="48.5" r="16.3"/>
	<circle class="st2" cx="141.6" cy="33" r="16.3"/>
	<circle class="st2" cx="183.4" cy="24.4" r="16.3"/>
	<circle class="st2" cx="224.1" cy="24.4" r="16.3"/>
	<circle class="st2" cx="256.8" cy="45.6" r="16.3"/>
	<circle class="st2" cx="300.9" cy="89.2" r="16.3"/>
	<circle class="st2" cx="322.7" cy="136.8" r="16.3"/>
	<circle class="st2" cx="306.8" cy="172" r="16.3"/>
	<circle class="st2" cx="329.5" cy="205.7" r="16.3"/>
	<circle class="st2" cx="310.9" cy="241.1" r="16.3"/>
	<circle class="st2" cx="279.7" cy="278" r="16.3"/>
	<circle class="st2" cx="225.3" cy="305.1" r="16.3"/>
	<circle class="st2" cx="177.3" cy="315.7" r="16.3"/>
	<circle class="st2" cx="136.2" cy="305.7" r="16.3"/>
	<circle class="st2" cx="74.9" cy="288.5" r="16.3"/>
	<circle class="st2" cx="56" cy="247.4" r="16.3"/>
	<circle class="st2" cx="29.8" cy="184.6" r="16.3"/>
	<circle class="st2" cx="35" cy="120.4" r="16.3"/>
	<circle class="st2" cx="261.3" cy="219.7" r="11.6"/>
	<circle class="st2" cx="208.5" cy="259.8" r="11.6"/>
	<circle class="st2" cx="249.7" cy="249.9" r="11.6"/>
	<circle class="st2" cx="117.2" cy="247.4" r="11.6"/>
	<circle class="st2" cx="100.2" cy="217.3" r="11.6"/>
	<circle class="st2" cx="84" cy="188.9" r="11.6"/>
	<circle class="st2" cx="121.1" cy="108.8" r="11.6"/>
	<circle class="st2" cx="153.2" cy="84.5" r="11.6"/>
	<circle class="st2" cx="228.1" cy="96.1" r="11.6"/>
	<circle class="st2" cx="197.7" cy="225.6" r="8.2"/>
	<circle class="st2" cx="218.2" cy="217.4" r="8.2"/>
	<circle class="st2" cx="282.3" cy="144.9" r="8.2"/>
	<circle class="st2" cx="259.5" cy="117" r="8.2"/>
	<circle class="st2" cx="183.4" cy="72.9" r="8.2"/>
	<circle class="st2" cx="102.5" cy="81.4" r="8.2"/>
	<circle class="st2" cx="108.3" cy="185.5" r="8.2"/>
	<circle class="st2" cx="251.3" cy="154.2" r="8.2"/>
	<circle class="st2" cx="35" cy="120.4" r="16.3"/>
	<circle class="st2" cx="177.3" cy="169.3" r="24.1"/>
	<circle class="st2" cx="84" cy="149.1" r="11.6"/>
	<circle class="st2" cx="156.2" cy="248.2" r="8.2"/>
</g>
<g>
	<path class="st2" d="M509.2,97v89.4c0,33.8,15,48.2,35.2,48.2c22.4,0,36.7-14.8,36.7-48.2V97h19.7v88c0,46.4-24.4,65.4-57.1,65.4
		c-30.9,0-54.2-17.7-54.2-64.5V97H509.2z"/>
	<path class="st2" d="M717.2,248L698,214.6c-7.8-12.8-12.8-21.1-17.5-29.8h-0.4c-4.3,8.7-8.5,16.8-16.4,30L645.6,248h-22.4
		l46.1-76.4L625,97h22.6l19.9,35.4c5.6,9.9,9.9,17.5,13.9,25.5h0.7c4.3-9,8.1-15.9,13.7-25.5L716.3,97h22.4l-45.9,73.5l47,77.5
		H717.2z"/>
	<path class="st2" d="M915.5,243c-7.2,3.6-21.5,7.2-39.9,7.2c-42.6,0-74.6-26.9-74.6-76.4c0-47.3,32-79.3,78.8-79.3
		c18.8,0,30.7,4,35.8,6.7l-4.7,15.9c-7.4-3.6-17.9-6.3-30.5-6.3c-35.4,0-58.9,22.6-58.9,62.3c0,37,21.3,60.7,58,60.7
		c11.9,0,24-2.5,31.8-6.3L915.5,243z"/>
	<path class="st2" d="M1034.8,192.9c0,40.1-27.8,57.6-54,57.6c-29.3,0-52-21.5-52-55.8c0-36.3,23.7-57.6,53.8-57.6
		C1013.8,137.1,1034.8,159.7,1034.8,192.9z M948.8,194c0,23.7,13.7,41.7,32.9,41.7c18.8,0,32.9-17.7,32.9-42.1
		c0-18.4-9.2-41.7-32.5-41.7C958.9,151.9,948.8,173.4,948.8,194z"/>
	<path class="st2" d="M1059.7,174.9c0-13.9-0.4-25.1-0.9-35.4h17.7l0.9,18.6h0.4c8.1-13.2,20.8-21.1,38.5-21.1
		c26.2,0,45.9,22.2,45.9,55.1c0,39-23.7,58.2-49.3,58.2c-14.3,0-26.9-6.3-33.4-17h-0.4v58.9h-19.5V174.9z M1079.2,203.8
		c0,2.9,0.4,5.6,0.9,8.1c3.6,13.7,15.5,23.1,29.6,23.1c20.8,0,32.9-17,32.9-41.9c0-21.7-11.4-40.3-32.3-40.3
		c-13.4,0-26,9.6-29.8,24.4c-0.7,2.5-1.3,5.4-1.3,8.1V203.8z"/>
	<path class="st2" d="M1198.1,197.3c0.4,26.7,17.5,37.6,37.2,37.6c14.1,0,22.6-2.5,30-5.6l3.4,14.1c-6.9,3.1-18.8,6.7-36.1,6.7
		c-33.4,0-53.3-22-53.3-54.7c0-32.7,19.3-58.5,50.8-58.5c35.4,0,44.8,31.1,44.8,51.1c0,4-0.4,7.2-0.7,9.2H1198.1z M1255.9,183.2
		c0.2-12.5-5.2-32-27.3-32c-19.9,0-28.7,18.4-30.2,32H1255.9z"/>
	<path class="st2" d="M1299.3,168.9c0-11.2-0.2-20.4-0.9-29.3h17.5l1.1,17.9h0.4c5.4-10.3,17.9-20.4,35.8-20.4
		c15,0,38.3,9,38.3,46.1V248h-19.7v-62.5c0-17.5-6.5-32-25.1-32c-13,0-23.1,9.2-26.4,20.2c-0.9,2.5-1.3,5.8-1.3,9.2V248h-19.7V168.9
		z"/>
	<path class="st2" d="M1423.6,88.9h19.7v67.6h0.4c3.1-5.6,8.1-10.5,14.1-13.9c5.8-3.4,12.8-5.6,20.2-5.6c14.6,0,37.9,9,37.9,46.4
		V248h-19.7v-62.3c0-17.5-6.5-32.3-25.1-32.3c-12.8,0-22.8,9-26.4,19.7c-1.1,2.7-1.3,5.6-1.3,9.4V248h-19.7V88.9z"/>
	<path class="st2" d="M1608,248l-1.6-13.7h-0.7c-6,8.5-17.7,16.1-33.1,16.1c-22,0-33.2-15.5-33.2-31.1c0-26.2,23.3-40.5,65.2-40.3
		v-2.2c0-9-2.5-25.1-24.6-25.1c-10.1,0-20.6,3.1-28.2,8.1l-4.5-13c9-5.8,22-9.6,35.6-9.6c33.1,0,41.2,22.6,41.2,44.3V222
		c0,9.4,0.4,18.6,1.8,26H1608z M1605,192.6c-21.5-0.4-45.9,3.4-45.9,24.4c0,12.8,8.5,18.8,18.6,18.8c14.1,0,23.1-9,26.2-18.1
		c0.7-2,1.1-4.3,1.1-6.3V192.6z"/>
	<path class="st2" d="M1749.3,139.6c-0.4,7.8-0.9,16.6-0.9,29.8v62.9c0,24.9-4.9,40.1-15.5,49.5c-10.5,9.9-25.8,13-39.4,13
		c-13,0-27.3-3.1-36.1-9l4.9-15c7.2,4.5,18.4,8.5,31.8,8.5c20.2,0,34.9-10.5,34.9-37.9v-12.1h-0.4c-6,10.1-17.7,18.1-34.5,18.1
		c-26.9,0-46.1-22.8-46.1-52.9c0-36.7,24-57.6,48.8-57.6c18.8,0,29.1,9.9,33.8,18.8h0.4l0.9-16.4H1749.3z M1728.9,182.3
		c0-3.4-0.2-6.3-1.1-9c-3.6-11.4-13.2-20.8-27.5-20.8c-18.8,0-32.3,15.9-32.3,41c0,21.3,10.8,39,32,39c12.1,0,23.1-7.6,27.3-20.2
		c1.1-3.4,1.6-7.2,1.6-10.5V182.3z"/>
	<path class="st2" d="M1792.1,197.3c0.4,26.7,17.5,37.6,37.2,37.6c14.1,0,22.6-2.5,30-5.6l3.4,14.1c-6.9,3.1-18.8,6.7-36.1,6.7
		c-33.4,0-53.3-22-53.3-54.7c0-32.7,19.3-58.5,50.8-58.5c35.4,0,44.8,31.1,44.8,51.1c0,4-0.4,7.2-0.7,9.2H1792.1z M1849.8,183.2
		c0.2-12.5-5.2-32-27.3-32c-19.9,0-28.7,18.4-30.2,32H1849.8z"/>
	<path class="st2" d="M1893.3,168.9c0-11.2-0.2-20.4-0.9-29.3h17.5l1.1,17.9h0.4c5.4-10.3,17.9-20.4,35.8-20.4
		c15,0,38.3,9,38.3,46.1V248h-19.7v-62.5c0-17.5-6.5-32-25.1-32c-13,0-23.1,9.2-26.4,20.2c-0.9,2.5-1.3,5.8-1.3,9.2V248h-19.7V168.9
		z"/>
</g>
</svg>
